<?xml version="1.0" encoding="UTF-8" standalone="no"?>
<!DOCTYPE svg PUBLIC "-//W3C//DTD SVG 1.1//EN" "http://www.w3.org/Graphics/SVG/1.1/DTD/svg11.dtd">
<svg width="100%" height="100%" viewBox="0 0 1158 355" version="1.1" xmlns="http://www.w3.org/2000/svg" xmlns:xlink="http://www.w3.org/1999/xlink" xml:space="preserve" xmlns:serif="http://www.serif.com/" style="fill-rule:evenodd;clip-rule:evenodd;stroke-linejoin:round;stroke-miterlimit:2;">
  <g>
    <path d="M1118.24,331.586c-0,0 -912.934,1.367 -945.102,0c-55.607,-2.362 -92.197,-28.95 -118.605,-64.082c-10.735,-14.28 -15.557,-28.559 -20.528,-46.628c-5.137,-18.675 -5.694,-65.241 -0.986,-82.464c15.305,-55.991 50.498,-94.298 101.377,-110.348c6.869,-2.166 10.668,-3.722 18.568,-4.746c4.837,-0.626 11.949,-1.181 20.079,-1.181c9.116,0 14.039,0.405 18.898,1.181c6.553,1.047 12.024,2.74 18.383,4.746c34.613,10.919 61.938,33.061 75.624,61.28c9.311,19.2 12.383,31.938 12.383,51.346c-0,47.642 -27.964,86.51 -70.239,97.629c-34.812,9.155 -72.407,-6.839 -87.149,-37.077c-9.584,-19.656 -6.267,-46.821 8.249,-63.045c18.025,-20.145 44.57,-22.129 61.905,-4.625c8.775,8.861 12.005,17.495 10.897,29.135c-0.919,9.659 0.438,10.629 5.205,3.718c5.043,-7.313 7.284,-15.599 7.284,-26.94c-0,-19.598 -12.705,-35.319 -32.58,-46.442c-16.954,-9.488 -49.929,-4.358 -61.285,1.286c-21.368,10.622 -38.71,32.561 -44.994,56.922c-4.207,16.308 -3.496,41.466 1.633,57.773c13.81,43.91 53.225,59.275 103.922,61.904c3.064,0.158 10.682,0.279 11.436,0.277c0.097,-0 -0.005,-0 2.285,-0.063l903.34,0c2.506,0 4.909,0.996 6.681,2.768c1.772,1.772 2.768,4.175 2.768,6.681l-0,41.546c-0,2.506 -0.996,4.91 -2.768,6.682c-1.772,1.772 -4.175,2.767 -6.681,2.767Z" style="fill:#00a957;"/>
    
    <g>
      <path d="M469.759,119.041c0,10.349 -1.614,19.511 -4.842,27.487c-3.228,7.975 -7.927,14.692 -14.099,20.151c-6.171,5.46 -13.743,9.613 -22.715,12.462c-8.972,2.848 -19.535,4.272 -31.687,4.272l-15.381,0l-0,58.818c-0,0.949 -0.309,1.804 -0.926,2.563c-0.617,0.76 -1.638,1.377 -3.062,1.852c-1.424,0.474 -3.323,0.854 -5.697,1.139c-2.373,0.285 -5.411,0.427 -9.114,0.427c-3.608,0 -6.622,-0.142 -9.044,-0.427c-2.421,-0.285 -4.343,-0.665 -5.767,-1.139c-1.424,-0.475 -2.421,-1.092 -2.991,-1.852c-0.57,-0.759 -0.855,-1.614 -0.855,-2.563l0,-165.772c0,-4.462 1.164,-7.809 3.49,-10.04c2.326,-2.231 5.388,-3.347 9.185,-3.347l43.437,0c4.368,0 8.521,0.166 12.461,0.499c3.941,0.332 8.664,1.044 14.171,2.136c5.507,1.092 11.084,3.109 16.734,6.053c5.649,2.943 10.467,6.669 14.455,11.179c3.987,4.51 7.026,9.779 9.114,15.808c2.089,6.029 3.133,12.794 3.133,20.294Zm-39.164,2.706c0,-6.456 -1.139,-11.773 -3.418,-15.95c-2.278,-4.178 -5.079,-7.263 -8.402,-9.257c-3.323,-1.994 -6.812,-3.252 -10.468,-3.774c-3.655,-0.522 -7.429,-0.783 -11.322,-0.783l-15.95,-0l-0,62.52l16.805,-0c5.981,-0 10.989,-0.807 15.025,-2.421c4.035,-1.614 7.334,-3.869 9.897,-6.765c2.564,-2.896 4.51,-6.361 5.839,-10.396c1.33,-4.035 1.994,-8.426 1.994,-13.174Z" style="fill-rule:nonzero; fill:#000000"/>
      
      <path d="M599.215,242.943c0,1.329 -0.475,2.373 -1.424,3.133c-0.95,0.76 -2.445,1.305 -4.486,1.638c-2.041,0.332 -5.056,0.498 -9.044,0.498c-4.272,0 -7.381,-0.166 -9.328,-0.498c-1.946,-0.333 -3.323,-0.878 -4.13,-1.638c-0.807,-0.76 -1.21,-1.804 -1.21,-3.133l-0,-10.112c-5.222,5.602 -11.18,9.969 -17.873,13.103c-6.694,3.133 -14.123,4.699 -22.288,4.699c-6.741,0 -12.937,-0.878 -18.586,-2.634c-5.649,-1.757 -10.538,-4.368 -14.668,-7.833c-4.131,-3.466 -7.335,-7.762 -9.614,-12.889c-2.278,-5.127 -3.417,-11.108 -3.417,-17.944c-0,-7.406 1.447,-13.838 4.343,-19.297c2.896,-5.46 7.216,-9.97 12.96,-13.53c5.744,-3.56 12.889,-6.195 21.433,-7.904c8.545,-1.709 18.467,-2.563 29.765,-2.563l12.39,-0l0,-7.691c0,-3.987 -0.403,-7.477 -1.21,-10.467c-0.807,-2.991 -2.136,-5.483 -3.988,-7.477c-1.851,-1.994 -4.32,-3.466 -7.405,-4.415c-3.086,-0.95 -6.907,-1.424 -11.465,-1.424c-5.981,-0 -11.322,0.664 -16.021,1.994c-4.7,1.329 -8.854,2.8 -12.462,4.414c-3.608,1.615 -6.622,3.086 -9.043,4.415c-2.421,1.33 -4.391,1.994 -5.91,1.994c-1.045,0 -1.971,-0.332 -2.778,-0.997c-0.807,-0.664 -1.471,-1.614 -1.993,-2.848c-0.523,-1.234 -0.926,-2.753 -1.211,-4.557c-0.285,-1.804 -0.427,-3.798 -0.427,-5.982c-0,-2.943 0.237,-5.269 0.712,-6.978c0.475,-1.709 1.377,-3.252 2.706,-4.629c1.329,-1.376 3.655,-2.895 6.978,-4.557c3.323,-1.661 7.216,-3.204 11.678,-4.628c4.463,-1.425 9.328,-2.588 14.598,-3.49c5.269,-0.902 10.705,-1.353 16.306,-1.353c9.969,0 18.491,0.974 25.564,2.92c7.073,1.946 12.889,4.937 17.446,8.972c4.557,4.035 7.88,9.233 9.969,15.595c2.089,6.361 3.133,13.909 3.133,22.644l0,85.449Zm-35.177,-54.403l-13.671,0c-5.792,0 -10.729,0.427 -14.812,1.282c-4.082,0.854 -7.405,2.136 -9.969,3.845c-2.563,1.709 -4.438,3.774 -5.625,6.195c-1.187,2.421 -1.78,5.198 -1.78,8.332c-0,5.316 1.685,9.494 5.055,12.532c3.371,3.038 8.047,4.557 14.028,4.557c5.032,0 9.661,-1.281 13.886,-3.845c4.225,-2.563 8.521,-6.314 12.888,-11.251l0,-21.647Zm18.23,-129.598c1.044,0 1.946,0.214 2.706,0.641c0.759,0.427 1.352,1.163 1.78,2.208c0.427,1.044 0.759,2.397 0.997,4.058c0.237,1.662 0.356,3.727 0.356,6.195c-0,2.469 -0.119,4.51 -0.356,6.124c-0.238,1.614 -0.57,2.944 -0.997,3.988c-0.428,1.044 -1.021,1.78 -1.78,2.207c-0.76,0.428 -1.662,0.641 -2.706,0.641l-72.632,0c-1.14,0 -2.113,-0.213 -2.92,-0.641c-0.807,-0.427 -1.448,-1.163 -1.922,-2.207c-0.475,-1.044 -0.831,-2.374 -1.068,-3.988c-0.238,-1.614 -0.357,-3.655 -0.357,-6.124c0,-2.373 0.119,-4.414 0.357,-6.123c0.237,-1.709 0.593,-3.062 1.068,-4.059c0.474,-0.997 1.115,-1.733 1.922,-2.208c0.807,-0.474 1.78,-0.712 2.92,-0.712l72.632,0Z" style="fill-rule:nonzero; fill:#000000"/>
      
      <path d="M753.024,242.658c-0,0.949 -0.261,1.78 -0.784,2.492c-0.522,0.712 -1.471,1.282 -2.848,1.709c-1.377,0.428 -3.252,0.76 -5.625,0.997c-2.374,0.238 -5.46,0.356 -9.257,0.356c-3.893,0 -7.05,-0.095 -9.471,-0.285c-2.421,-0.189 -4.415,-0.498 -5.981,-0.925c-1.567,-0.428 -2.778,-1.021 -3.632,-1.78c-0.855,-0.76 -1.614,-1.757 -2.279,-2.991l-42.297,-66.935l-0,67.22c-0,0.949 -0.285,1.78 -0.855,2.492c-0.569,0.712 -1.542,1.305 -2.919,1.78c-1.377,0.475 -3.204,0.831 -5.483,1.068c-2.279,0.238 -5.174,0.356 -8.687,0.356c-3.513,0 -6.409,-0.118 -8.688,-0.356c-2.278,-0.237 -4.106,-0.593 -5.483,-1.068c-1.376,-0.475 -2.35,-1.068 -2.919,-1.78c-0.57,-0.712 -0.855,-1.543 -0.855,-2.492l0,-187.277c0,-0.949 0.285,-1.804 0.855,-2.563c0.569,-0.76 1.543,-1.4 2.919,-1.923c1.377,-0.522 3.205,-0.925 5.483,-1.21c2.279,-0.285 5.175,-0.427 8.688,-0.427c3.513,-0 6.408,0.142 8.687,0.427c2.279,0.285 4.106,0.688 5.483,1.21c1.377,0.523 2.35,1.163 2.919,1.923c0.57,0.759 0.855,1.614 0.855,2.563l-0,111.512l37.598,-50.558c0.759,-1.139 1.614,-2.136 2.563,-2.991c0.95,-0.854 2.208,-1.519 3.774,-1.993c1.567,-0.475 3.513,-0.831 5.839,-1.068c2.326,-0.238 5.293,-0.357 8.901,-0.357c3.513,0 6.48,0.119 8.901,0.357c2.421,0.237 4.367,0.593 5.839,1.068c1.472,0.474 2.492,1.068 3.062,1.78c0.57,0.712 0.855,1.59 0.855,2.635c-0,1.424 -0.357,2.943 -1.069,4.557c-0.712,1.614 -1.78,3.323 -3.204,5.127l-37.17,42.155l43.009,66.508c1.139,1.899 1.97,3.536 2.492,4.913c0.523,1.377 0.784,2.635 0.784,3.774Z" style="fill-rule:nonzero; fill:#000000"/>
      
      <path d="M810.844,242.516c0,0.949 -0.285,1.78 -0.854,2.492c-0.57,0.712 -1.543,1.305 -2.92,1.78c-1.376,0.475 -3.204,0.831 -5.483,1.068c-2.278,0.238 -5.174,0.356 -8.687,0.356c-3.513,0 -6.409,-0.118 -8.687,-0.356c-2.279,-0.237 -4.107,-0.593 -5.483,-1.068c-1.377,-0.475 -2.35,-1.068 -2.92,-1.78c-0.57,-0.712 -0.854,-1.543 -0.854,-2.492l-0,-126.75c-0,-0.949 0.284,-1.78 0.854,-2.492c0.57,-0.712 1.543,-1.33 2.92,-1.852c1.376,-0.522 3.204,-0.925 5.483,-1.21c2.278,-0.285 5.174,-0.428 8.687,-0.428c3.513,0 6.409,0.143 8.687,0.428c2.279,0.285 4.107,0.688 5.483,1.21c1.377,0.522 2.35,1.14 2.92,1.852c0.569,0.712 0.854,1.543 0.854,2.492l0,126.75Zm2.706,-170.044c0,7.215 -1.471,12.2 -4.415,14.953c-2.943,2.754 -8.402,4.13 -16.377,4.13c-8.071,0 -13.506,-1.329 -16.307,-3.987c-2.801,-2.659 -4.201,-7.453 -4.201,-14.384c-0,-7.216 1.448,-12.224 4.343,-15.025c2.896,-2.801 8.379,-4.201 16.449,-4.201c7.976,-0 13.387,1.353 16.236,4.059c2.848,2.705 4.272,7.524 4.272,14.455Z" style="fill-rule:nonzero; fill:#000000"/>
      
      <path d="M964.653,242.658c-0,0.949 -0.261,1.78 -0.783,2.492c-0.523,0.712 -1.472,1.282 -2.849,1.709c-1.376,0.428 -3.252,0.76 -5.625,0.997c-2.374,0.238 -5.459,0.356 -9.257,0.356c-3.893,0 -7.05,-0.095 -9.471,-0.285c-2.421,-0.189 -4.415,-0.498 -5.981,-0.925c-1.567,-0.428 -2.777,-1.021 -3.632,-1.78c-0.854,-0.76 -1.614,-1.757 -2.278,-2.991l-42.298,-66.935l0,67.22c0,0.949 -0.285,1.78 -0.854,2.492c-0.57,0.712 -1.543,1.305 -2.92,1.78c-1.376,0.475 -3.204,0.831 -5.483,1.068c-2.278,0.238 -5.174,0.356 -8.687,0.356c-3.513,0 -6.409,-0.118 -8.687,-0.356c-2.279,-0.237 -4.107,-0.593 -5.483,-1.068c-1.377,-0.475 -2.35,-1.068 -2.92,-1.78c-0.57,-0.712 -0.854,-1.543 -0.854,-2.492l-0,-187.277c-0,-0.949 0.284,-1.804 0.854,-2.563c0.57,-0.76 1.543,-1.4 2.92,-1.923c1.376,-0.522 3.204,-0.925 5.483,-1.21c2.278,-0.285 5.174,-0.427 8.687,-0.427c3.513,-0 6.409,0.142 8.687,0.427c2.279,0.285 4.107,0.688 5.483,1.21c1.377,0.523 2.35,1.163 2.92,1.923c0.569,0.759 0.854,1.614 0.854,2.563l0,111.512l37.598,-50.558c0.759,-1.139 1.614,-2.136 2.563,-2.991c0.95,-0.854 2.208,-1.519 3.774,-1.993c1.567,-0.475 3.513,-0.831 5.839,-1.068c2.326,-0.238 5.293,-0.357 8.901,-0.357c3.513,0 6.48,0.119 8.901,0.357c2.421,0.237 4.368,0.593 5.839,1.068c1.472,0.474 2.493,1.068 3.062,1.78c0.57,0.712 0.855,1.59 0.855,2.635c-0,1.424 -0.356,2.943 -1.068,4.557c-0.712,1.614 -1.781,3.323 -3.205,5.127l-37.17,42.155l43.009,66.508c1.14,1.899 1.97,3.536 2.493,4.913c0.522,1.377 0.783,2.635 0.783,3.774Z" style="fill-rule:nonzero; fill:#000000"/>
      
      <path d="M1022.47,242.516c-0,0.949 -0.285,1.78 -0.855,2.492c-0.57,0.712 -1.543,1.305 -2.92,1.78c-1.376,0.475 -3.204,0.831 -5.482,1.068c-2.279,0.238 -5.175,0.356 -8.688,0.356c-3.513,0 -6.409,-0.118 -8.687,-0.356c-2.279,-0.237 -4.106,-0.593 -5.483,-1.068c-1.377,-0.475 -2.35,-1.068 -2.92,-1.78c-0.569,-0.712 -0.854,-1.543 -0.854,-2.492l-0,-126.75c-0,-0.949 0.285,-1.78 0.854,-2.492c0.57,-0.712 1.543,-1.33 2.92,-1.852c1.377,-0.522 3.204,-0.925 5.483,-1.21c2.278,-0.285 5.174,-0.428 8.687,-0.428c3.513,0 6.409,0.143 8.688,0.428c2.278,0.285 4.106,0.688 5.482,1.21c1.377,0.522 2.35,1.14 2.92,1.852c0.57,0.712 0.855,1.543 0.855,2.492l-0,126.75Zm2.705,-170.044c0,7.215 -1.471,12.2 -4.414,14.953c-2.944,2.754 -8.403,4.13 -16.378,4.13c-8.07,0 -13.506,-1.329 -16.307,-3.987c-2.801,-2.659 -4.201,-7.453 -4.201,-14.384c-0,-7.216 1.448,-12.224 4.344,-15.025c2.895,-2.801 8.378,-4.201 16.449,-4.201c7.975,-0 13.387,1.353 16.235,4.059c2.848,2.705 4.272,7.524 4.272,14.455Z" style="fill-rule:nonzero; fill:#000000"/>
    </g>
  </g>
  <rect x="0" y="0" width="1157.48" height="354.331" style="fill:none;"/>
</svg>