<?xml version="1.0" encoding="UTF-8" standalone="no"?>
<!DOCTYPE svg PUBLIC "-//W3C//DTD SVG 1.1//EN" "http://www.w3.org/Graphics/SVG/1.1/DTD/svg11.dtd">
<svg width="100%" height="100%" viewBox="0 0 1400 283" version="1.1" xmlns="http://www.w3.org/2000/svg" xmlns:xlink="http://www.w3.org/1999/xlink" xml:space="preserve" xmlns:serif="http://www.serif.com/" style="fill-rule:evenodd;clip-rule:evenodd;stroke-linejoin:round;stroke-miterlimit:2;">
    <g transform="matrix(4.16667,0,0,4.16667,0,0)">
        <g transform="matrix(1,0,0,1,0,-1)">
            <g id="Layer_2">
                <g id="Layer_1-2">
                    <g transform="matrix(1,0,0,1,1,1.12)">
                        <g>
                            <g transform="matrix(1,0,0,1,2,2.31)">
                                <path d="M25.16,52.12C24.73,51.86 14.61,45.76 14.61,31.46C14.61,17.16 24.73,11.05 25.16,10.79L29.33,17.9L27.25,14.35L29.37,17.88C29.1,18 22.84,22 22.84,31.46C22.84,40.92 29.1,44.87 29.37,45L25.16,52.12Z" style="fill:rgb(49,158,62);fill-rule:nonzero;"/>
                            </g>
                            <g transform="matrix(1,0,0,1,2,2.31)">
                                <path d="M15.93,62.91C15.28,62.53 0,53.31 0,31.46C0,9.61 15.28,0.38 15.93,0L20.1,7.1L18,3.55L20.11,7.09C19.62,7.38 8.23,14.46 8.23,31.46C8.23,48.46 19.63,55.53 20.12,55.82L15.93,62.91Z" style="fill:rgb(49,158,62);fill-rule:nonzero;"/>
                            </g>
                        </g>
                    </g>
                    <g transform="matrix(2.3889,0,0,2.3889,-57.7337,-104.559)">
                        <g transform="matrix(24,0,0,24,148.438,65.6931)">
                        </g>
                        <text x="39.067px" y="65.693px" style="font-family:'Arial-BoldMT', 'Arial', sans-serif;font-weight:700;font-size:24px;fill:rgb(200,200,200);fill-rule:nonzero;">Proximity</text>
                    </g>
                    <g transform="matrix(1,0,0,1,-38.6323,1.12)">
                        <g transform="matrix(1,0,0,1,-2,-2.305)">
                            <path d="M347.79,56.73L343.62,49.63L345.7,53.18L343.58,49.65C343.85,49.49 350.11,45.53 350.11,36.07C350.11,26.43 343.68,22.55 343.62,22.52L347.79,15.41C348.22,15.67 358.34,21.77 358.34,36.07C358.34,50.37 348.22,56.48 347.79,56.73Z" style="fill:rgb(49,158,62);fill-rule:nonzero;"/>
                        </g>
                        <g transform="matrix(1,0,0,1,-2,-2.31)">
                            <path d="M357,67.53L352.83,60.43L354.93,64L352.83,60.46C353.32,60.17 364.72,53.09 364.72,36.09C364.72,19.09 353.32,12 352.83,11.71L357,4.62C357.67,5 373,14.22 373,36.07C373,57.92 357.67,67.15 357,67.53Z" style="fill:rgb(49,158,62);fill-rule:nonzero;"/>
                        </g>
                    </g>
                </g>
            </g>
        </g>
    </g>
</svg>
